<mxfile host="Electron" modified="2023-08-17T18:29:28.319Z" agent="Mozilla/5.0 (Windows NT 10.0; Win64; x64) AppleWebKit/537.36 (KHTML, like Gecko) draw.io/21.6.5 Chrome/114.0.5735.243 Electron/25.3.1 Safari/537.36" etag="yiI6h3KJUX-W6SIjOkHS" version="21.6.5" type="device">
  <diagram name="Page-1" id="6-M1QkFewr_LljTwfktk">
    <mxGraphModel dx="1242" dy="837" grid="1" gridSize="10" guides="1" tooltips="1" connect="1" arrows="1" fold="1" page="1" pageScale="1" pageWidth="850" pageHeight="1100" math="0" shadow="0">
      <root>
        <mxCell id="0" />
        <mxCell id="1" parent="0" />
        <mxCell id="oQpbeWB2g_cSH-DBHIDo-1" value="&lt;font style=&quot;font-size: 18px;&quot;&gt;Discs&lt;/font&gt;&lt;br&gt;&lt;br&gt;&lt;font style=&quot;font-size: 14px;&quot;&gt;Responsibilities:&lt;/font&gt;&lt;br&gt;&lt;br&gt;Disc Movement&lt;br&gt;Storing disc size&lt;br&gt;&lt;br&gt;&lt;font style=&quot;font-size: 14px;&quot;&gt;Methods:&lt;/font&gt;&lt;br&gt;&lt;br&gt;Return To Starting Position&lt;br&gt;Is Draggable (Bool)&lt;br&gt;Return Disc Size&lt;br&gt;Move to Position (Vector3)" style="text;strokeColor=none;fillColor=none;align=left;verticalAlign=top;spacingLeft=4;spacingRight=4;overflow=hidden;points=[[0,0.5],[1,0.5]];portConstraint=eastwest;rotatable=0;whiteSpace=wrap;html=1;" vertex="1" parent="1">
          <mxGeometry x="40" y="39" width="720" height="221" as="geometry" />
        </mxCell>
        <mxCell id="oQpbeWB2g_cSH-DBHIDo-3" value="&lt;span style=&quot;font-size: 18px;&quot;&gt;Pegs&lt;/span&gt;&lt;br&gt;&lt;br&gt;&lt;font style=&quot;font-size: 14px;&quot;&gt;Responsibilities:&lt;/font&gt;&lt;br&gt;&lt;br&gt;Evaluate disc being dropped&lt;br&gt;&amp;nbsp;- If can fit&amp;nbsp;&lt;br&gt;&#x9;&lt;span style=&quot;white-space: pre;&quot;&gt;&#x9;&lt;/span&gt;- Move to first empty slot&lt;br&gt;&lt;span style=&quot;&quot;&gt;&lt;span style=&quot;white-space: pre;&quot;&gt;&amp;nbsp;&amp;nbsp;&amp;nbsp;&amp;nbsp;&lt;span style=&quot;white-space: pre;&quot;&gt;&#x9;&lt;/span&gt;&lt;/span&gt;&lt;/span&gt;- Add to array&lt;br&gt;&lt;span style=&quot;&quot;&gt;&lt;span style=&quot;white-space: pre;&quot;&gt;&amp;nbsp;&amp;nbsp;&amp;nbsp;&amp;nbsp;&lt;span style=&quot;white-space: pre;&quot;&gt;&#x9;&lt;/span&gt;&lt;/span&gt;&lt;/span&gt;- Manager increment score&lt;br&gt;&lt;span style=&quot;white-space: pre;&quot;&gt;&#x9;&lt;/span&gt;- If can&#39;t fit&lt;br&gt;&lt;span style=&quot;&quot;&gt;&lt;span style=&quot;white-space: pre;&quot;&gt;&amp;nbsp;&amp;nbsp;&amp;nbsp;&amp;nbsp;&lt;/span&gt;&lt;/span&gt;- Send disc to original position&lt;br&gt;&lt;br&gt;If is Peg #2&lt;br&gt;&lt;span style=&quot;&quot;&gt;&lt;span style=&quot;white-space: pre;&quot;&gt;&amp;nbsp;&amp;nbsp;&amp;nbsp;&amp;nbsp;&lt;/span&gt;&lt;/span&gt;- Check for winning condition&lt;br&gt;&lt;font style=&quot;font-size: 14px;&quot;&gt;&lt;br&gt;Methods:&lt;/font&gt;" style="text;strokeColor=none;fillColor=none;align=left;verticalAlign=top;spacingLeft=4;spacingRight=4;overflow=hidden;points=[[0,0.5],[1,0.5]];portConstraint=eastwest;rotatable=0;whiteSpace=wrap;html=1;" vertex="1" parent="1">
          <mxGeometry x="40" y="280" width="720" height="340" as="geometry" />
        </mxCell>
        <mxCell id="oQpbeWB2g_cSH-DBHIDo-4" value="&lt;span style=&quot;font-size: 18px;&quot;&gt;Manager&lt;/span&gt;&lt;br&gt;&lt;br&gt;&lt;font style=&quot;font-size: 14px;&quot;&gt;Responsibilities:&lt;/font&gt;&lt;br&gt;&lt;br&gt;&lt;br&gt;&lt;br&gt;&lt;br&gt;&lt;font style=&quot;font-size: 14px;&quot;&gt;Methods:&lt;/font&gt;" style="text;strokeColor=none;fillColor=none;align=left;verticalAlign=top;spacingLeft=4;spacingRight=4;overflow=hidden;points=[[0,0.5],[1,0.5]];portConstraint=eastwest;rotatable=0;whiteSpace=wrap;html=1;" vertex="1" parent="1">
          <mxGeometry x="40" y="640" width="720" height="400" as="geometry" />
        </mxCell>
      </root>
    </mxGraphModel>
  </diagram>
</mxfile>
